<svg width="670" height="430" viewBox="0 0 670 430" fill="none" xmlns="http://www.w3.org/2000/svg">
<rect width="670" height="430" fill="#EDEDED"/>
<path d="M182.309 211.861H184.428C185.411 211.861 186.121 212.005 186.557 212.291C186.997 212.577 187.216 213.03 187.216 213.648C187.216 214.065 187.109 214.412 186.894 214.688C186.679 214.965 186.37 215.139 185.966 215.211V215.26C186.468 215.354 186.836 215.541 187.07 215.821C187.308 216.098 187.426 216.474 187.426 216.949C187.426 217.59 187.202 218.093 186.753 218.458C186.307 218.819 185.685 219 184.887 219H182.309V211.861ZM183.476 214.811H184.599C185.088 214.811 185.444 214.734 185.669 214.581C185.893 214.425 186.005 214.161 186.005 213.79C186.005 213.455 185.883 213.212 185.639 213.062C185.398 212.913 185.014 212.838 184.487 212.838H183.476V214.811ZM183.476 215.758V218.019H184.716C185.205 218.019 185.573 217.926 185.82 217.74C186.071 217.551 186.196 217.255 186.196 216.852C186.196 216.48 186.069 216.205 185.815 216.026C185.561 215.847 185.175 215.758 184.658 215.758H183.476ZM190.236 215.758H191.33C192.085 215.758 192.643 215.888 193.005 216.148C193.366 216.409 193.547 216.799 193.547 217.32C193.547 217.877 193.358 218.297 192.98 218.58C192.606 218.86 192.056 219 191.33 219H189.089V213.6H190.236V215.758ZM192.409 217.35C192.409 217.079 192.308 216.891 192.106 216.783C191.908 216.676 191.621 216.622 191.247 216.622H190.236V218.15H191.1C191.563 218.15 191.896 218.085 192.101 217.955C192.306 217.825 192.409 217.623 192.409 217.35ZM195.549 219H194.396V213.6H195.549V219ZM197.182 215.758C197.182 214.553 197.385 213.627 197.792 212.979C198.202 212.332 198.853 211.915 199.745 211.729C200.419 211.593 201.195 211.459 202.074 211.329L202.235 212.34C201.168 212.503 200.386 212.63 199.892 212.721C199.381 212.815 199.011 213.025 198.783 213.351C198.559 213.676 198.428 214.166 198.393 214.82H198.466C198.651 214.55 198.894 214.342 199.193 214.195C199.493 214.046 199.813 213.971 200.155 213.971C200.819 213.971 201.337 214.181 201.708 214.601C202.079 215.021 202.265 215.61 202.265 216.368C202.265 217.237 202.038 217.91 201.586 218.385C201.137 218.86 200.513 219.098 199.716 219.098C198.925 219.098 198.305 218.805 197.855 218.219C197.406 217.633 197.182 216.812 197.182 215.758ZM199.794 218.16C200.647 218.16 201.073 217.6 201.073 216.48C201.073 215.4 200.688 214.859 199.916 214.859C199.704 214.859 199.499 214.905 199.301 214.996C199.102 215.087 198.918 215.208 198.749 215.357C198.583 215.507 198.454 215.662 198.363 215.821C198.363 216.59 198.485 217.172 198.729 217.569C198.974 217.963 199.328 218.16 199.794 218.16ZM206.246 219.098C205.406 219.098 204.749 218.854 204.274 218.365C203.802 217.874 203.566 217.198 203.566 216.339C203.566 215.457 203.785 214.763 204.225 214.259C204.664 213.754 205.268 213.502 206.036 213.502C206.749 213.502 207.312 213.718 207.726 214.151C208.139 214.584 208.346 215.18 208.346 215.938V216.559H204.747C204.764 217.083 204.905 217.486 205.172 217.77C205.439 218.049 205.815 218.189 206.3 218.189C206.619 218.189 206.915 218.16 207.189 218.102C207.465 218.04 207.762 217.939 208.077 217.799V218.731C207.797 218.865 207.514 218.959 207.228 219.015C206.941 219.07 206.614 219.098 206.246 219.098ZM206.036 214.371C205.672 214.371 205.379 214.487 205.157 214.718C204.939 214.949 204.809 215.286 204.767 215.729H207.218C207.211 215.283 207.104 214.946 206.896 214.718C206.687 214.487 206.401 214.371 206.036 214.371ZM212.689 219.098C212.005 219.098 211.475 218.852 211.097 218.36H211.029C211.074 218.816 211.097 219.093 211.097 219.19V221.402H209.95V213.6H210.877C210.903 213.701 210.957 213.941 211.038 214.322H211.097C211.455 213.775 211.992 213.502 212.708 213.502C213.382 213.502 213.906 213.746 214.281 214.234C214.658 214.723 214.847 215.408 214.847 216.29C214.847 217.172 214.655 217.861 214.271 218.355C213.89 218.85 213.363 219.098 212.689 219.098ZM212.411 214.439C211.955 214.439 211.621 214.573 211.41 214.84C211.201 215.107 211.097 215.533 211.097 216.119V216.29C211.097 216.948 211.201 217.424 211.41 217.721C211.618 218.014 211.958 218.16 212.43 218.16C212.827 218.16 213.133 217.997 213.348 217.672C213.563 217.346 213.67 216.882 213.67 216.28C213.67 215.675 213.563 215.217 213.348 214.908C213.136 214.596 212.824 214.439 212.411 214.439ZM217.579 213.6V216.368C217.579 216.69 217.553 217.164 217.501 217.789L220.211 213.6H221.612V219H220.508V216.28C220.508 216.131 220.517 215.888 220.533 215.553C220.552 215.217 220.569 214.973 220.582 214.82L217.881 219H216.48V213.6H217.579ZM227.605 213.6V214.498H225.847V219H224.695V214.498H222.937V213.6H227.605ZM231.304 219.098C230.464 219.098 229.806 218.854 229.331 218.365C228.859 217.874 228.623 217.198 228.623 216.339C228.623 215.457 228.843 214.763 229.282 214.259C229.722 213.754 230.326 213.502 231.094 213.502C231.807 213.502 232.37 213.718 232.783 214.151C233.197 214.584 233.403 215.18 233.403 215.938V216.559H229.805C229.821 217.083 229.963 217.486 230.229 217.77C230.496 218.049 230.872 218.189 231.357 218.189C231.676 218.189 231.973 218.16 232.246 218.102C232.523 218.04 232.819 217.939 233.135 217.799V218.731C232.855 218.865 232.572 218.959 232.285 219.015C231.999 219.07 231.672 219.098 231.304 219.098ZM231.094 214.371C230.729 214.371 230.436 214.487 230.215 214.718C229.997 214.949 229.867 215.286 229.824 215.729H232.275C232.269 215.283 232.161 214.946 231.953 214.718C231.745 214.487 231.458 214.371 231.094 214.371ZM244.223 216.3C244.223 217.11 243.977 217.757 243.486 218.238C242.997 218.72 242.32 218.993 241.454 219.059V221.402H240.366V219.059C239.51 218.993 238.831 218.717 238.329 218.229C237.831 217.737 237.582 217.094 237.582 216.3C237.582 215.476 237.825 214.827 238.31 214.352C238.795 213.873 239.483 213.603 240.375 213.541V211.402H241.454V213.541C242.32 213.619 242.997 213.901 243.486 214.386C243.977 214.871 244.223 215.509 244.223 216.3ZM238.774 216.3C238.774 216.834 238.907 217.263 239.174 217.589C239.441 217.914 239.842 218.105 240.375 218.16V214.439C239.838 214.501 239.436 214.693 239.169 215.016C238.906 215.338 238.774 215.766 238.774 216.3ZM243.037 216.3C243.037 215.772 242.903 215.349 242.636 215.03C242.372 214.711 241.979 214.521 241.454 214.459V218.16C241.985 218.098 242.381 217.906 242.641 217.584C242.905 217.258 243.037 216.83 243.037 216.3ZM249.23 219L249.001 218.248H248.962C248.701 218.577 248.439 218.801 248.175 218.922C247.912 219.039 247.573 219.098 247.16 219.098C246.629 219.098 246.214 218.954 245.915 218.668C245.618 218.382 245.47 217.976 245.47 217.452C245.47 216.896 245.677 216.476 246.09 216.192C246.504 215.909 247.134 215.755 247.98 215.729L248.913 215.699V215.411C248.913 215.066 248.831 214.809 248.669 214.64C248.509 214.467 248.26 214.381 247.921 214.381C247.645 214.381 247.379 214.422 247.126 214.503C246.872 214.584 246.628 214.68 246.393 214.791L246.022 213.971C246.315 213.818 246.636 213.702 246.984 213.624C247.332 213.543 247.661 213.502 247.97 213.502C248.657 213.502 249.175 213.652 249.523 213.951C249.875 214.251 250.05 214.721 250.05 215.362V219H249.23ZM247.521 218.219C247.938 218.219 248.271 218.103 248.522 217.872C248.776 217.638 248.903 217.311 248.903 216.891V216.422L248.21 216.451C247.669 216.471 247.275 216.562 247.028 216.725C246.784 216.884 246.662 217.13 246.662 217.462C246.662 217.703 246.733 217.89 246.877 218.023C247.02 218.154 247.235 218.219 247.521 218.219ZM253.051 213.6V216.368C253.051 216.69 253.025 217.164 252.972 217.789L255.682 213.6H257.084V219H255.98V216.28C255.98 216.131 255.988 215.888 256.005 215.553C256.024 215.217 256.04 214.973 256.054 214.82L253.353 219H251.952V213.6H253.051ZM254.481 212.94C253.791 212.94 253.285 212.817 252.963 212.569C252.644 212.319 252.466 211.902 252.43 211.319H253.471C253.49 211.554 253.534 211.736 253.602 211.866C253.674 211.996 253.775 212.091 253.905 212.149C254.039 212.205 254.24 212.232 254.511 212.232C254.83 212.232 255.072 212.162 255.238 212.022C255.404 211.879 255.505 211.645 255.541 211.319H256.6C256.552 211.879 256.355 212.289 256.01 212.55C255.665 212.81 255.155 212.94 254.481 212.94ZM263.458 219H262.301V214.498H260.812C260.72 215.657 260.597 216.562 260.44 217.213C260.287 217.864 260.086 218.339 259.835 218.639C259.588 218.938 259.265 219.088 258.868 219.088C258.618 219.088 258.408 219.052 258.238 218.98V218.082C258.359 218.128 258.479 218.15 258.6 218.15C258.932 218.15 259.192 217.778 259.381 217.032C259.573 216.284 259.723 215.139 259.83 213.6H263.458V219ZM269.4 213.6V216.368C269.4 216.69 269.374 217.164 269.322 217.789L272.032 213.6H273.433V219H272.329V216.28C272.329 216.131 272.338 215.888 272.354 215.553C272.373 215.217 272.39 214.973 272.403 214.82L269.703 219H268.301V213.6H269.4ZM279.807 219H278.65V214.498H277.161C277.07 215.657 276.946 216.562 276.79 217.213C276.637 217.864 276.435 218.339 276.184 218.639C275.937 218.938 275.615 219.088 275.217 219.088C274.967 219.088 274.757 219.052 274.588 218.98V218.082C274.708 218.128 274.828 218.15 274.949 218.15C275.281 218.15 275.541 217.778 275.73 217.032C275.922 216.284 276.072 215.139 276.179 213.6H279.807V219ZM282.851 213.6V216.368C282.851 216.69 282.825 217.164 282.773 217.789L285.483 213.6H286.885V219H285.781V216.28C285.781 216.131 285.789 215.888 285.805 215.553C285.825 215.217 285.841 214.973 285.854 214.82L283.154 219H281.753V213.6H282.851Z" fill="white"/>
<path d="M382.968 213.6V215.768H385.512V213.6H386.659V219H385.512V216.671H382.968V219H381.82V213.6H382.968ZM390.963 219.098C390.123 219.098 389.466 218.854 388.99 218.365C388.518 217.874 388.282 217.198 388.282 216.339C388.282 215.457 388.502 214.763 388.942 214.259C389.381 213.754 389.985 213.502 390.753 213.502C391.466 213.502 392.029 213.718 392.443 214.151C392.856 214.584 393.063 215.18 393.063 215.938V216.559H389.464C389.48 217.083 389.622 217.486 389.889 217.77C390.156 218.049 390.532 218.189 391.017 218.189C391.336 218.189 391.632 218.16 391.905 218.102C392.182 218.04 392.478 217.939 392.794 217.799V218.731C392.514 218.865 392.231 218.959 391.945 219.015C391.658 219.07 391.331 219.098 390.963 219.098ZM390.753 214.371C390.389 214.371 390.096 214.487 389.874 214.718C389.656 214.949 389.526 215.286 389.484 215.729H391.935C391.928 215.283 391.821 214.946 391.613 214.718C391.404 214.487 391.118 214.371 390.753 214.371ZM396.844 219.098C396.027 219.098 395.405 218.86 394.979 218.385C394.556 217.906 394.344 217.221 394.344 216.329C394.344 215.421 394.565 214.723 395.008 214.234C395.454 213.746 396.097 213.502 396.937 213.502C397.507 213.502 398.019 213.608 398.475 213.819L398.128 214.742C397.643 214.553 397.243 214.459 396.927 214.459C395.993 214.459 395.526 215.079 395.526 216.319C395.526 216.925 395.641 217.381 395.872 217.687C396.107 217.989 396.449 218.141 396.898 218.141C397.409 218.141 397.892 218.014 398.348 217.76V218.761C398.143 218.881 397.923 218.967 397.689 219.02C397.458 219.072 397.176 219.098 396.844 219.098ZM403.267 213.6H404.527L402.296 216.202L404.717 219H403.399L401.065 216.261V219H399.918V213.6H401.065V216.222L403.267 213.6ZM410.701 216.29C410.701 217.172 410.475 217.861 410.022 218.355C409.57 218.85 408.94 219.098 408.133 219.098C407.628 219.098 407.182 218.984 406.795 218.756C406.407 218.528 406.11 218.201 405.901 217.774C405.693 217.348 405.589 216.853 405.589 216.29C405.589 215.414 405.813 214.731 406.263 214.239C406.712 213.748 407.345 213.502 408.162 213.502C408.943 213.502 409.562 213.754 410.017 214.259C410.473 214.76 410.701 215.437 410.701 216.29ZM406.77 216.29C406.77 217.537 407.231 218.16 408.152 218.16C409.064 218.16 409.519 217.537 409.519 216.29C409.519 215.056 409.06 214.439 408.142 214.439C407.661 214.439 407.311 214.599 407.093 214.918C406.878 215.237 406.77 215.694 406.77 216.29ZM416.763 219H415.605V214.498H414.116C414.025 215.657 413.901 216.562 413.745 217.213C413.592 217.864 413.39 218.339 413.14 218.639C412.892 218.938 412.57 219.088 412.173 219.088C411.922 219.088 411.712 219.052 411.543 218.98V218.082C411.663 218.128 411.784 218.15 411.904 218.15C412.236 218.15 412.497 217.778 412.686 217.032C412.878 216.284 413.027 215.139 413.135 213.6H416.763V219ZM419.856 215.758H421.208C422.715 215.758 423.469 216.279 423.469 217.32C423.469 217.87 423.277 218.289 422.893 218.575C422.509 218.858 421.947 219 421.208 219H418.708V213.6H419.856V215.758ZM422.317 217.35C422.317 217.079 422.214 216.891 422.009 216.783C421.804 216.676 421.514 216.622 421.14 216.622H419.856V218.15H421.159C421.537 218.15 421.823 218.082 422.019 217.945C422.217 217.809 422.317 217.61 422.317 217.35ZM428.393 213.6H429.653L427.421 216.202L429.843 219H428.525L426.191 216.261V219H425.043V213.6H426.191V216.222L428.393 213.6ZM435.827 216.29C435.827 217.172 435.601 217.861 435.148 218.355C434.696 218.85 434.066 219.098 433.258 219.098C432.754 219.098 432.308 218.984 431.921 218.756C431.533 218.528 431.235 218.201 431.027 217.774C430.819 217.348 430.714 216.853 430.714 216.29C430.714 215.414 430.939 214.731 431.388 214.239C431.838 213.748 432.471 213.502 433.288 213.502C434.069 213.502 434.687 213.754 435.143 214.259C435.599 214.76 435.827 215.437 435.827 216.29ZM431.896 216.29C431.896 217.537 432.357 218.16 433.278 218.16C434.189 218.16 434.645 217.537 434.645 216.29C434.645 215.056 434.186 214.439 433.268 214.439C432.786 214.439 432.436 214.599 432.218 214.918C432.004 215.237 431.896 215.694 431.896 216.29ZM446.666 216.3C446.666 217.11 446.42 217.757 445.929 218.238C445.44 218.72 444.763 218.993 443.897 219.059V221.402H442.809V219.059C441.952 218.993 441.274 218.717 440.772 218.229C440.274 217.737 440.025 217.094 440.025 216.3C440.025 215.476 440.268 214.827 440.753 214.352C441.238 213.873 441.926 213.603 442.818 213.541V211.402H443.897V213.541C444.763 213.619 445.44 213.901 445.929 214.386C446.42 214.871 446.666 215.509 446.666 216.3ZM441.217 216.3C441.217 216.834 441.35 217.263 441.617 217.589C441.884 217.914 442.285 218.105 442.818 218.16V214.439C442.281 214.501 441.879 214.693 441.612 215.016C441.349 215.338 441.217 215.766 441.217 216.3ZM445.479 216.3C445.479 215.772 445.346 215.349 445.079 215.03C444.815 214.711 444.422 214.521 443.897 214.459V218.16C444.428 218.098 444.824 217.906 445.084 217.584C445.348 217.258 445.479 216.83 445.479 216.3ZM451.673 219L451.444 218.248H451.404C451.144 218.577 450.882 218.801 450.618 218.922C450.355 219.039 450.016 219.098 449.603 219.098C449.072 219.098 448.657 218.954 448.358 218.668C448.061 218.382 447.913 217.976 447.913 217.452C447.913 216.896 448.12 216.476 448.533 216.192C448.947 215.909 449.577 215.755 450.423 215.729L451.356 215.699V215.411C451.356 215.066 451.274 214.809 451.112 214.64C450.952 214.467 450.703 214.381 450.364 214.381C450.088 214.381 449.822 214.422 449.569 214.503C449.315 214.584 449.071 214.68 448.836 214.791L448.465 213.971C448.758 213.818 449.079 213.702 449.427 213.624C449.775 213.543 450.104 213.502 450.413 213.502C451.1 213.502 451.618 213.652 451.966 213.951C452.318 214.251 452.493 214.721 452.493 215.362V219H451.673ZM449.964 218.219C450.381 218.219 450.714 218.103 450.965 217.872C451.219 217.638 451.346 217.311 451.346 216.891V216.422L450.653 216.451C450.112 216.471 449.718 216.562 449.471 216.725C449.227 216.884 449.105 217.13 449.105 217.462C449.105 217.703 449.176 217.89 449.32 218.023C449.463 218.154 449.678 218.219 449.964 218.219ZM455.494 213.6V216.368C455.494 216.69 455.468 217.164 455.415 217.789L458.125 213.6H459.527V219H458.423V216.28C458.423 216.131 458.431 215.888 458.448 215.553C458.467 215.217 458.483 214.973 458.496 214.82L455.796 219H454.395V213.6H455.494ZM456.924 212.94C456.234 212.94 455.728 212.817 455.406 212.569C455.087 212.319 454.909 211.902 454.873 211.319H455.913C455.933 211.554 455.977 211.736 456.045 211.866C456.117 211.996 456.218 212.091 456.348 212.149C456.482 212.205 456.683 212.232 456.954 212.232C457.273 212.232 457.515 212.162 457.681 212.022C457.847 211.879 457.948 211.645 457.984 211.319H459.043C458.995 211.879 458.798 212.289 458.453 212.55C458.107 212.81 457.598 212.94 456.924 212.94ZM465.901 219H464.744V214.498H463.254C463.163 215.657 463.04 216.562 462.883 217.213C462.73 217.864 462.529 218.339 462.278 218.639C462.031 218.938 461.708 219.088 461.311 219.088C461.06 219.088 460.851 219.052 460.681 218.98V218.082C460.802 218.128 460.922 218.15 461.043 218.15C461.375 218.15 461.635 217.778 461.824 217.032C462.016 216.284 462.166 215.139 462.273 213.6H465.901V219ZM472.637 216.29C472.637 217.172 472.41 217.861 471.958 218.355C471.505 218.85 470.875 219.098 470.068 219.098C469.564 219.098 469.118 218.984 468.73 218.756C468.343 218.528 468.045 218.201 467.837 217.774C467.628 217.348 467.524 216.853 467.524 216.29C467.524 215.414 467.749 214.731 468.198 214.239C468.647 213.748 469.28 213.502 470.097 213.502C470.879 213.502 471.497 213.754 471.953 214.259C472.409 214.76 472.637 215.437 472.637 216.29ZM468.706 216.29C468.706 217.537 469.166 218.16 470.088 218.16C470.999 218.16 471.455 217.537 471.455 216.29C471.455 215.056 470.996 214.439 470.078 214.439C469.596 214.439 469.246 214.599 469.028 214.918C468.813 215.237 468.706 215.694 468.706 216.29ZM478.947 214.981C478.947 215.619 478.575 216.005 477.829 216.139V216.178C478.246 216.227 478.565 216.358 478.786 216.573C479.007 216.788 479.118 217.066 479.118 217.408C479.118 217.919 478.923 218.313 478.532 218.59C478.145 218.863 477.58 219 476.838 219H474.26V213.6H476.828C478.241 213.6 478.947 214.06 478.947 214.981ZM477.941 217.34C477.941 217.079 477.84 216.896 477.639 216.788C477.437 216.677 477.134 216.622 476.73 216.622H475.407V218.15H476.76C477.548 218.15 477.941 217.88 477.941 217.34ZM477.8 215.079C477.8 214.864 477.715 214.71 477.546 214.615C477.38 214.518 477.131 214.469 476.799 214.469H475.407V215.768H476.628C477.012 215.768 477.303 215.719 477.502 215.621C477.701 215.52 477.8 215.34 477.8 215.079Z" fill="white"/>
<path d="M351.57 202.109C351.219 201.758 350.75 201.523 350.242 201.523C350.086 201.523 349.93 201.562 349.773 201.602L334.305 205.43L340.984 187.344C341.102 187.109 341.18 186.875 341.18 186.641C341.18 185.742 340.398 185 339.422 185H326.609C325.789 185 325.086 185.508 324.891 186.25L317.039 218.477C316.922 219.023 317.078 219.609 317.547 220C317.859 220.273 318.328 220.43 318.758 220.43C318.914 220.43 319.07 220.43 319.227 220.391L335.086 216.445L327.391 248.008C327.195 248.828 327.703 249.648 328.563 249.922C328.758 249.961 328.953 250 329.109 250C329.813 250 330.438 249.609 330.75 249.023L351.844 203.828C352.117 203.242 352 202.578 351.57 202.109Z" fill="white"/>
</svg>
